<svg xmlns="http://www.w3.org/2000/svg" viewBox="68.02 356.85 889.61 283.95">
  <path d="M 122 372.017 C 106.746 374.669, 93.824 384.310, 87.395 397.837 C 82.087 409.006, 82.036 409.974, 82.025 498 C 82.019 549.452, 82.397 581.896, 83.052 586 C 85.958 604.227, 100.765 620.512, 117.995 624.431 C 128.250 626.763, 291.526 626.796, 300.465 624.467 C 316.289 620.345, 328.689 608.150, 333.407 592.068 C 334.811 587.280, 334.999 576.274, 334.988 499.068 C 334.979 429.143, 334.707 410.493, 333.639 406.500 C 328.837 388.550, 313.455 374.504, 295.806 371.952 C 288.179 370.849, 128.375 370.909, 122 372.017" fill="#2b6bff"/>
  <path d="M 184.911 435.642 C 184.732 467.512, 184.659 468.611, 182.595 470.894 C 180.762 472.921, 179.813 473, 157.345 473 L 134 473 134 523.045 L 134 573.091 136.515 575.606 L 139.030 578.121 180.265 577.776 C 220.308 577.442, 221.702 577.364, 228.500 575.101 C 250.496 567.778, 266.382 554.483, 276.466 534.960 C 288.558 511.550, 288.453 485.107, 276.175 461.520 C 272.495 454.452, 269.583 450.619, 262.500 443.520 C 252.451 433.449, 243.540 427.838, 230.500 423.371 C 223.157 420.855, 220.960 420.595, 203.750 420.207 L 185 419.784 184.911 435.642" fill="#ffffff"/>
  <path d="M 154.375 439.535 C 134.656 460.029, 133.505 461.390, 134.505 463.008 C 134.878 463.612, 143.126 464, 155.579 464 L 176.039 464 175.770 442.333 C 175.584 427.390, 175.151 420.549, 174.375 420.291 C 173.756 420.085, 164.756 428.745, 154.375 439.535" fill="#ffffff" fill-opacity="0.5"/>
  <path d="M 390.014 438.661 C 390.021 439.122, 389.995 466.050, 389.956 498.500 C 389.916 530.950, 389.910 558.962, 389.942 560.750 L 390 564 419.250 563.988 C 451.678 563.975, 454.308 563.617, 466.591 557.551 C 482.229 549.826, 493.922 533.596, 497.133 515.156 C 498.937 504.800, 497.755 487.961, 494.598 479.012 C 487.844 459.872, 474.217 446.594, 455 440.428 C 450.402 438.953, 444.622 438.594, 419.750 438.243 C 403.387 438.011, 390.006 438.200, 390.014 438.661 M 410 501.406 L 410 544 426.395 544 C 445.481 544, 452.739 542.372, 460.681 536.310 C 467.222 531.317, 468.567 529.619, 472.809 521 C 476.442 513.618, 476.500 513.311, 476.500 501.500 C 476.500 489.752, 476.424 489.343, 472.874 482 C 468.447 472.844, 462.732 466.979, 454.091 462.723 L 447.549 459.500 428.774 459.156 L 410 458.813 410 501.406 M 542.798 474.931 C 534.694 477.522, 529.257 480.978, 523.187 487.395 C 505.246 506.366, 506.492 537.921, 525.864 555.155 C 540.828 568.467, 564.996 570.116, 581.500 558.951 C 587.541 554.864, 594.812 546.604, 597.532 540.737 C 603.014 528.912, 603.423 512.908, 598.551 500.845 C 595.431 493.118, 587.159 483.350, 580.367 479.369 C 569.564 473.038, 554.341 471.240, 542.798 474.931 M 644.762 474.942 C 620.086 482.830, 607.054 510.512, 615.907 536.233 C 619.606 546.978, 629.475 558.039, 639.429 562.596 C 654.503 569.497, 675.878 566.333, 687.969 555.409 C 692.041 551.730, 697.971 542.783, 697.991 540.289 C 698.001 538.923, 690.136 536.352, 683.088 535.417 C 678.791 534.847, 678.322 534.999, 677.275 537.296 C 673.845 544.824, 661.270 548.858, 650.500 545.885 C 644.475 544.222, 636.638 535.930, 634.608 529.068 C 630.445 515.003, 635.681 500.906, 647.357 494.745 C 653.759 491.368, 663.990 491.612, 670.250 495.292 C 672.862 496.828, 675.016 498.403, 675.036 498.792 C 675.056 499.181, 676.085 500.738, 677.324 502.250 L 679.576 505.001 688.823 501.899 C 697.279 499.063, 698.012 498.614, 697.389 496.649 C 695.412 490.412, 687.450 481.798, 680.295 478.154 C 669.812 472.814, 655.473 471.518, 644.762 474.942 M 548.792 493.267 C 546.753 493.945, 543.098 495.913, 540.670 497.639 C 530.830 504.637, 527.345 521.143, 533.277 532.649 C 541.024 547.675, 560.181 551.634, 572.534 540.762 C 578.546 535.469, 581.187 530.075, 581.775 521.884 C 582.914 506.015, 572.760 493.387, 558.072 492.406 C 555.008 492.202, 550.832 492.589, 548.792 493.267" fill="#0b1830" fill-rule="evenodd"/>
  <path d="M 767.387 435.998 C 743.817 439.455, 723.288 456.980, 715.845 480 C 712.841 489.291, 712.183 507.232, 714.470 517.509 C 718.256 534.526, 731.301 552.193, 745.686 559.785 C 762.962 568.902, 786.706 569.263, 803.669 560.668 C 835.930 544.320, 848.338 503.702, 831.407 469.873 C 828.300 463.666, 820.449 454.017, 814.514 449.113 C 802.436 439.132, 782.966 433.714, 767.387 435.998 M 887.347 436.095 C 865.270 439.783, 853.468 453.013, 853.532 474 C 853.553 480.991, 854.014 483.485, 856.130 488.046 C 862.565 501.920, 870.435 506.267, 900.327 512.457 C 918.156 516.148, 922.525 519.583, 922.469 529.860 C 922.426 537.539, 919.913 541.774, 913.483 545 C 909.162 547.168, 907.171 547.500, 898.500 547.500 C 882.962 547.500, 874.698 543.021, 872.043 533.160 L 871.002 529.294 861.298 532.007 C 855.960 533.500, 851.443 535.171, 851.259 535.723 C 850.401 538.298, 855.616 548.771, 860.138 553.552 C 868.740 562.648, 881.079 566.963, 898.500 566.968 C 926.806 566.976, 943.633 552.719, 943.312 529 C 943.073 511.373, 933.857 500.386, 915.267 495.569 C 911.918 494.701, 904.852 493.101, 899.566 492.014 C 878.913 487.764, 872.568 482.038, 874.468 469.366 C 875.852 460.136, 884.071 454.995, 897.428 455.006 C 909.983 455.015, 916.507 458.371, 920.199 466.717 C 921.241 469.073, 922.560 471, 923.130 471 C 924.462 471, 940.216 466.985, 941.151 466.407 C 941.540 466.166, 940.914 463.164, 939.760 459.735 C 936.947 451.379, 928.127 442.307, 919.787 439.190 C 909.438 435.323, 898.316 434.262, 887.347 436.095 M 761.415 459.366 C 754.112 462.082, 750.756 464.371, 745.122 470.483 C 726.597 490.581, 730.463 524.792, 752.957 539.812 C 776.243 555.363, 807.764 543.341, 816.157 515.709 C 817.814 510.253, 818.150 506.950, 817.838 499.183 C 817.491 490.536, 817.054 488.646, 813.831 481.859 C 805.879 465.114, 793.088 456.928, 775.068 457.052 C 769.772 457.089, 765.674 457.783, 761.415 459.366" fill="#2b6bff" fill-rule="evenodd"/>
</svg>
